<?xml version="1.0" encoding="utf-8"?>
<!-- Generator: Adobe Illustrator 22.1.0, SVG Export Plug-In . SVG Version: 6.00 Build 0)  -->
<svg version="1.1" id="Layer_1" xmlns="http://www.w3.org/2000/svg" xmlns:xlink="http://www.w3.org/1999/xlink" x="0px" y="0px"
	 viewBox="0 0 20 20" style="enable-background:new 0 0 20 20;" xml:space="preserve">
<style type="text/css">
	.st0{fill:none;}
</style>
<g>
	<path class="st0" d="M0,0h20v20H0V0z"/>
	<path d="M19.6,15.3c0.2,0.3,0.2,0.7,0.1,1c-0.1,0.1-0.2,0.2-0.3,0.3c-0.1,0-0.2,0.1-0.3,0.1h-2.6l0,0L14.1,19c-0.6,0.6-1.5,1-2.4,1
		c-0.9-0.1-1.7-0.4-2.4-1.1l-0.1-0.1c-0.7-0.7-1-1.7-0.9-2.7c0-0.4,0.1-0.7,0.3-0.9c0.2-0.4,0.4-0.8,0.8-1.1l5.5-5.2
		c0.5-0.4,1.1-0.6,1.7-0.6c0.7,0,1.4,0.3,1.8,0.8c0.9,1,0.8,2.6-0.1,3.5l0,0L17.7,13l-0.9,1l-1.5,1.4l-1.5,1.3l-1.2,1.1
		c-0.3,0.3-0.7,0.4-1.1,0.4c-0.4,0-0.8-0.2-1.1-0.5c-0.4-0.4-0.5-1-0.4-1.5c0.1-0.2,0.2-0.5,0.4-0.7l3.9-3.7c0.3-0.3,0.6-0.2,0.8,0
		s0.2,0.6,0,0.7l-3.8,3.6c0,0,0,0,0,0.1c-0.1,0.2-0.1,0.5,0.1,0.7c0.2,0.2,0.6,0.2,0.8,0l5.4-5.2c0.5-0.6,0.6-1.5,0-2
		c-0.6-0.6-1.4-0.6-2.1,0l-5.3,5.1c-0.2,0.2-0.3,0.3-0.4,0.5c-0.2,0.3-0.3,0.6-0.3,0.9c-0.1,0.7,0.1,1.4,0.6,2
		c0.4,0.5,1,0.7,1.7,0.7H12c0.6,0,1.2-0.2,1.6-0.7l1.7-1.6l0,0l1.4-1.3h1.6l0,0l0,0l-0.1-0.1c-0.2-0.2-0.3-0.4-0.5-0.6l-0.1-0.1
		l0.3-0.3l0.7-0.7l0,0l0.6-0.6c0.1-0.1,0.2-0.1,0.4-0.1s0.4,0.1,0.4,0.2l0,0c0.2,0.2,0.1,0.5-0.1,0.7l-0.7,0.6l0,0
		C19.2,14.7,19.4,15,19.6,15.3z M5.3,4.5C5.3,2,7.4,0,9.9,0s4.6,2,4.6,4.5S12.4,9,9.9,9S5.3,7,5.3,4.5z M6.9,4.5c0,1.6,1.4,3,3,3
		s3-1.3,3-3s-1.3-3-3-3C8.3,1.5,7,2.8,6.9,4.5z M9.9,11.3c0.2,0,0.4,0,0.6,0l1.3-1.2C11.2,10,10.6,10,9.9,10c-4,0-7.6,2-9.7,5.4
		C0.1,15.5,0,15.8,0,16c0,0.1,0,0.2,0,0.2c0,0.2,0.2,0.3,0.4,0.4c0,0,0.2,0,0.3,0h5.9c0-0.2,0-0.4,0-0.5c0-0.3,0.1-0.5,0.2-0.8h-5
		C3.8,12.8,6.6,11.3,9.9,11.3z"/>
</g>
</svg>
