<?xml version="1.0" encoding="utf-8"?>
<!--Generator: Adobe Illustrator 22.1.0, SVG Export Plug-In . SVG Version: 6.00 Build 0)-->
<svg xmlns="http://www.w3.org/2000/svg" xmlns:xlink="http://www.w3.org/1999/xlink" id="Layer_1" x="0px" y="0px" fill="#232323" style="enable-background:new 0 0 30 30" version="1.1" viewBox="0 0 30 30" xml:space="preserve">
    <g>
        <path d="M18.3,0.4c0.6,0.5,0.6,1.4,0.1,2l0,0L4.5,17.1c-2.3,2.4-2.1,6.2,0.2,8.5c2.4,2.3,6.1,2.1,8.4-0.2l0,0l13.1-13.9l0.1-0.1
		c1.4-1.5,1.4-3.8-0.1-5.3l0,0c-1.5-1.4-3.8-1.3-5.2,0.1l0,0l-0.1,0.1l-13.1,14l0,0c-0.5,0.6-0.5,1.4,0,2l0,0c0.5,0.5,1.4,0.5,1.9,0
		l0,0l9.2-9.8c0.5-0.5,1.4-0.6,1.9-0.1l0,0c0.6,0.5,0.6,1.4,0.1,2l0,0l-9.2,9.8c-0.1,0.1-0.1,0.1-0.2,0.2c-1.6,1.5-4,1.5-5.6,0
		c-1.6-1.5-1.7-4-0.3-5.6l0.1-0.1l0.1-0.1l0,0L18.9,4.4L19,4.3c2.4-2.6,6.4-2.7,9-0.3l0,0c2.6,2.5,2.7,6.5,0.3,9.1l-0.1,0.1
		L15.1,27.3c-3.3,3.5-8.8,3.7-12.3,0.4c0,0,0,0-0.1-0.1c-3.5-3.3-3.6-8.9-0.3-12.4l0,0L16.3,0.4C16.8-0.1,17.7-0.2,18.3,0.4
		L18.3,0.4z"/>
    </g>
</svg>
