<svg xmlns="http://www.w3.org/2000/svg" viewBox="0 0 20 20"><defs><style>.cls-1{fill:#232323;}</style></defs><title>Asset 10</title><g id="Layer_2" data-name="Layer 2"><g id="Layer_1-2" data-name="Layer 1"><path id="Path_2539" data-name="Path 2539" class="cls-1" d="M20,2.2A2.08,2.08,0,0,0,18.05,0H2A2.08,2.08,0,0,0,0,2.18V14.72a2.09,2.09,0,0,0,2,2.2H13.23l3.38,2.92A.57.57,0,0,0,17,20a.56.56,0,0,0,.31-.09.69.69,0,0,0,.34-.62V16.92h.42A2.07,2.07,0,0,0,20,14.74ZM18.7,14.75a.7.7,0,0,1-.63.74H17a.67.67,0,0,0-.63.71h0v1.63l-2.51-2.18a.62.62,0,0,0-.41-.16H2a.71.71,0,0,1-.64-.76h0V2.16A.69.69,0,0,1,2,1.42H18.06a.71.71,0,0,1,.64.76Z"/><path id="Path_2540" data-name="Path 2540" class="cls-1" d="M16.75,5.24h-13a.49.49,0,1,0,0,1h13a.49.49,0,0,0,0-1Z"/><path id="Path_2541" data-name="Path 2541" class="cls-1" d="M11.84,9.89H3.56c-.14,0-.26.21-.26.49s.12.5.26.5h8.28c.15,0,.27-.22.27-.5S12,9.89,11.84,9.89Z"/></g></g></svg>