<?xml version="1.0" encoding="utf-8"?>
<!--Generator: Adobe Illustrator 22.1.0, SVG Export Plug-In . SVG Version: 6.00 Build 0)-->
<svg xmlns="http://www.w3.org/2000/svg" xmlns:xlink="http://www.w3.org/1999/xlink" id="Layer_1" x="0px" y="0px" fill="#232323" style="enable-background:new 0 0 20 20" version="1.1" viewBox="0 0 20 20" xml:space="preserve">
    <g>
        <path d="M0,7.7V17c0,1.7,1.3,3,3,3h14c1.7,0,3-1.3,3-3V3c0-1.7-1.3-3-3-3H7.8L0,7.7z M19,17c0,1.1-0.9,2-2,2H3c-1.1,0-2-0.9-2-2
		V7.7h3.8c1.7,0,3-1.3,3-3V1H17c1.1,0,2,0.9,2,2V17z M9.4,6.3L9.4,6.3c0-0.3,0.2-0.5,0.5-0.5h7c0.3,0,0.5,0.2,0.5,0.5v0
		c0,0.3-0.2,0.5-0.5,0.5l-7,0C9.6,6.8,9.4,6.6,9.4,6.3z M2.6,9.6L2.6,9.6c0-0.3,0.2-0.5,0.5-0.5h13.8c0.3,0,0.5,0.2,0.5,0.5v0
		c0,0.3-0.2,0.5-0.5,0.5H3.1C2.8,10.1,2.6,9.8,2.6,9.6z M2.6,12.8L2.6,12.8c0-0.3,0.2-0.5,0.5-0.5h13.8c0.3,0,0.5,0.2,0.5,0.5v0
		c0,0.3-0.2,0.5-0.5,0.5H3.1C2.8,13.3,2.6,13.1,2.6,12.8z M2.6,16.1L2.6,16.1c0-0.3,0.2-0.5,0.5-0.5h13.8c0.3,0,0.5,0.2,0.5,0.5l0,0
		c0,0.3-0.2,0.5-0.5,0.5H3.1C2.8,16.6,2.6,16.4,2.6,16.1z"/>
    </g>
</svg>
