<?xml version="1.0" encoding="utf-8"?>
<!-- Generator: Adobe Illustrator 22.1.0, SVG Export Plug-In . SVG Version: 6.00 Build 0)  -->
<svg version="1.1" id="Layer_1" xmlns="http://www.w3.org/2000/svg" xmlns:xlink="http://www.w3.org/1999/xlink" x="0px" y="0px"
	 viewBox="0 0 14 14" style="enable-background:new 0 0 14 14;" xml:space="preserve" fill="#232323">
<g>
	<path d="M13,2h-2.1V0.4c0-0.2-0.2-0.4-0.4-0.4H9.8C9.5,0,9.4,0.2,9.4,0.4V2H4.6V0.4C4.6,0.2,4.5,0,4.2,0c0,0,0,0,0,0H3.5
		C3.3,0,3.1,0.2,3.1,0.4c0,0,0,0,0,0V2H1C0.4,2,0,2.4,0,3v10c0,0.6,0.4,1,1,1h12c0.6,0,1-0.4,1-1V3C14,2.4,13.6,2,13,2z M13,13H1
		V6.5h12V13z M1,5.5V3h2.1v0.6C3.1,3.8,3.3,4,3.5,4c0,0,0,0,0,0h0.7c0.2,0,0.4-0.2,0.4-0.4c0,0,0,0,0,0V3h4.7v0.6
		C9.4,3.8,9.5,4,9.8,4h0.7c0.2,0,0.4-0.2,0.4-0.4V3H13v2.5H1z M6.3,12c-0.1,0-0.2,0-0.3-0.1l-2-1.6c-0.2-0.2-0.2-0.5-0.1-0.7
		s0.5-0.2,0.7-0.1l1.7,1.4l3.8-3.2c0.2-0.2,0.5-0.1,0.7,0.1C11,7.9,11,8.2,10.8,8.4l0,0l-4.2,3.5C6.5,12,6.4,12,6.3,12z"/>
</g>
</svg>
