<svg xmlns="http://www.w3.org/2000/svg" width="22" height="22" viewBox="0 0 22 22"><g transform="translate(0 -0.269)"><path d="M21.372,31.49a.579.579,0,0,0-.577.582v5.166a1.74,1.74,0,0,1-1.73,1.745H2.884a1.74,1.74,0,0,1-1.73-1.745V22.077a1.74,1.74,0,0,1,1.73-1.745H8a.582.582,0,0,0,0-1.164H2.884A2.9,2.9,0,0,0,0,22.077V37.238a2.9,2.9,0,0,0,2.884,2.909H19.065a2.9,2.9,0,0,0,2.884-2.909V32.072A.579.579,0,0,0,21.372,31.49Zm0,0" transform="translate(0 -17.878)" fill="rgba(0, 114, 180, 0.8)"/><path d="M156.367,40.216l7.888-7.888,2.544,2.544-7.888,7.888Zm0,0" transform="translate(-146.531 -30.328)" fill="rgba(0, 114, 180, 0.8)"/><path d="M132.543,200.03l2.811-.779-2.033-2.033Zm0,0" transform="translate(-124.824 -185.409)" fill="rgba(0, 114, 180, 0.8)"/><path d="M319.01.663a1.352,1.352,0,0,0-1.91,0l-.573.573,2.544,2.544.573-.573a1.352,1.352,0,0,0,0-1.91Zm0,0" transform="translate(-298.039)" fill="rgba(0, 114, 180, 0.8)"/></g></svg>