<?xml version="1.0" encoding="utf-8"?>
<!-- Generator: Adobe Illustrator 22.1.0, SVG Export Plug-In . SVG Version: 6.00 Build 0)  -->
<svg version="1.1" id="Layer_1" xmlns="http://www.w3.org/2000/svg" xmlns:xlink="http://www.w3.org/1999/xlink" x="0px" y="0px"
	 viewBox="0 0 24 24" style="enable-background:new 0 0 24 24;" xml:space="preserve">
<style type="text/css">
	.st0{fill:none;}
	.st1{fill:#FFFFFF;}
</style>
<g id="project-icon" transform="translate(-20 -214)">
	<path class="st0" d="M20,214h24v24H20V214z"/>
	<path id="Union_6" class="st1" d="M23.2,236c-0.3,0-0.7-0.1-0.9-0.4l-0.1-0.1c-0.1-0.2-0.2-0.5-0.2-0.7v-14.1
		c0-0.7,0.5-1.2,1.2-1.2h0.1v-2.3h0.9v-0.6h1V216h13.6v5.8h0.1c0.7,0,1.2,0.5,1.2,1.2v1.7h0.8c0.3,0,0.6,0.1,0.8,0.4
		c0.2,0.3,0.4,0.6,0.3,0.9v0.1l-3.3,9.1c-0.1,0.5-0.6,0.8-1.1,0.8H23.2z M26.5,226.1l-0.6,1.7l-2.5,6.9h14.2l3.1-8.7H26.6
		L26.5,226.1z M23.3,231.1L23.3,231.1z M38.8,224.7L38.8,224.7z M26.5,224.7h11v-7.4h-11V224.7z M28.2,224.4c-0.3,0-0.6-0.2-0.7-0.5
		v-0.1c0-0.3,0.3-0.6,0.6-0.6l0,0h7.7c0.4,0,0.7,0.3,0.7,0.6s-0.3,0.7-0.6,0.7l0,0L28.2,224.4L28.2,224.4z M28.2,222.1
		c-0.4,0-0.6-0.3-0.6-0.7s0.3-0.6,0.6-0.6h7.7c0.4,0,0.6,0.3,0.6,0.7s-0.3,0.6-0.6,0.6H28.2z M28.2,219.8c-0.3,0-0.6-0.2-0.7-0.5
		v-0.1c0-0.3,0.3-0.6,0.6-0.7l0,0h3.3c0.3,0,0.6,0.2,0.7,0.5v0.1c0,0.3-0.3,0.6-0.6,0.6l0,0L28.2,219.8L28.2,219.8z"/>
</g>
</svg>
