<svg id="rocket" xmlns="http://www.w3.org/2000/svg" width="41" height="95.698" viewBox="0 0 41 95.698">
  <g id="Group_6" data-name="Group 6" transform="translate(-29 -3.82)">
    <g id="Group_6-2" data-name="Group 6">
      <path id="Path_3" data-name="Path 3" d="M29,73l13-3.679L36.809,52.587Z" fill="#212121"/>
    </g>
    <g id="Group_7" data-name="Group 7">
      <path id="Path_4" data-name="Path 4" d="M70,73,57,69.321l5.19-16.734Z" fill="#212121"/>
    </g>
    <g id="Group_8" data-name="Group 8">
      <path id="Path_5" data-name="Path 5" d="M49.78,99.518,45.292,80.134a4.543,4.543,0,0,1,9.086,0l-.041.35ZM48.3,79.989l1.517,6.493,1.555-6.5a1.543,1.543,0,0,0-3.072,0Z" fill="#212121"/>
    </g>
    <g id="Group_9" data-name="Group 9">
      <path id="Path_6" data-name="Path 6" d="M49.394,22.606a5.081,5.081,0,1,0,5.082,5.081A5.087,5.087,0,0,0,49.394,22.606Z" fill="#212121"/>
      <path id="Path_7" data-name="Path 7" d="M49.591,3.82C18.017,19.656,42.062,72,42.062,72H56.726S81.166,19.656,49.591,3.82Zm-.2,31.949a8.081,8.081,0,1,1,8.082-8.081A8.09,8.09,0,0,1,49.394,35.769Z" fill="#212121"/>
    </g>
  </g>
  <path id="Polygon_1" data-name="Polygon 1" d="M2.5,0,5,10H0Z" transform="translate(23.105 84.178) rotate(180)" fill="#212121"/>
</svg>
