<?xml version="1.0" encoding="utf-8"?>
<!-- Generator: Adobe Illustrator 22.1.0, SVG Export Plug-In . SVG Version: 6.00 Build 0)  -->
<svg version="1.1" id="Layer_1" xmlns="http://www.w3.org/2000/svg" xmlns:xlink="http://www.w3.org/1999/xlink" x="0px" y="0px"
	 viewBox="0 0 16 16" style="enable-background:new 0 0 16 16;" xml:space="preserve">
<style type="text/css">
	.st0{fill:#FFFFFF;}
	.st1{fill:#156F3C;}
</style>
<g>
	<path class="st0" d="M12.5,3.7l1.1,1.1L6.4,12l-4-4l1.1-1.1l2.9,2.9L12.5,3.7z"/>
	<path class="st1" d="M15.2,4.5c-0.6-1.3-1.6-2.5-2.9-3.3C11.1,0.5,9.6,0,8,0S4.9,0.5,3.7,1.3C1.5,2.7,0,5.2,0,8
		c0,1.9,0.6,3.6,1.7,4.9C3.2,14.8,5.4,16,8,16s4.8-1.2,6.3-3.1c0.4-0.5,0.7-1,0.9-1.5c0.5-1,0.8-2.2,0.8-3.5S15.7,5.6,15.2,4.5z
		 M3.5,6.9l2.9,2.9l6.1-6.1l1.1,1.1L6.4,12l-4-4L3.5,6.9z"/>
</g>
</svg>
