<svg id="Group_3495" data-name="Group 3495" xmlns="http://www.w3.org/2000/svg" width="704" height="626" viewBox="0 0 704 626">
  <path id="Path_1227" data-name="Path 1227" d="M.777,49.18C-21.645,562.564,445.5,858.188,704,177.526,455.323,515.708,208.686,428.107.777,49.18Z" transform="translate(0.002 51.257)" fill="#194173"/>
  <path id="Path_1228" data-name="Path 1228" d="M215.689,279.854C260.618,279.854,279,239.009,279,190c-4.084-49.013-29.469-87.816-63.309-87.816s-61.267,40.845-63.309,89.858C152.38,241.113,176.887,279.854,215.689,279.854Z" transform="translate(158.094 105.898)" fill="#194173"/>
  <path id="Path_1229" data-name="Path 1229" d="M26.183,114.018,201.1,2.308l.9-.572L201,0l-.939.47L15.155,94.718,5.23,99.763,16.809,120Z" transform="translate(5.455 0)" fill="#194173"/>
</svg>
